<svg width="1920" height="236" viewBox="0 0 1920 236" fill="none" xmlns="http://www.w3.org/2000/svg">
<path d="M1743.47 269.733C1790.03 269.733 1827.77 231.999 1827.77 185.451C1827.77 138.903 1790.03 101.169 1743.47 101.169C1696.91 101.169 1659.17 138.903 1659.17 185.451C1659.17 231.999 1696.91 269.733 1743.47 269.733Z" stroke="#2084FF" stroke-width="25"/>
<path d="M512.542 37.405C520.869 51.1474 516.477 69.04 502.731 77.3691C488.985 85.6982 471.091 81.3096 462.764 67.5672C454.437 53.8247 458.83 35.9322 472.576 27.603C486.321 19.2739 504.215 23.6626 512.542 37.405Z" stroke="#FA6767"/>
<path d="M500.918 74.3768C513.01 67.0496 516.874 51.3089 509.549 39.2191C502.223 27.1293 486.481 23.2685 474.389 30.5957C462.297 37.923 458.432 53.6636 465.758 65.7535C473.084 77.8433 488.825 81.7041 500.918 74.3768Z" stroke="#FA6767" stroke-width="25"/>
<path d="M134.725 273.544L286.612 329.801L257.638 168.012L134.725 273.544ZM83.6103 282.709L275.447 118L320.668 370.514L83.6103 282.709Z" fill="#40C391"/>
</svg>
