<svg width="1106" height="948" viewBox="0 0 1106 948" fill="none" xmlns="http://www.w3.org/2000/svg">
<g opacity="0.8">
<rect width="8" height="241" rx="4" transform="matrix(-0.819152 0.573576 0.573577 0.819152 351.553 169.279)" fill="#BAD6FA"/>
<rect width="6" height="181" rx="3" transform="matrix(-0.819152 0.573576 0.573577 0.819152 722.915 151.279)" fill="#BFECDB"/>
<rect width="9" height="70" rx="4.5" transform="matrix(-0.819152 0.573576 0.573577 0.819152 1028.37 312.279)" fill="#BAD6FA"/>
<rect width="30" height="400" rx="15" transform="matrix(-0.819152 0.573576 0.573576 0.819152 386.575 150.279)" fill="#83B6F5"/>
<rect width="23" height="300" rx="11.25" transform="matrix(-0.819152 0.573577 0.573576 0.819152 432.84 40.2792)" fill="#F0F6FF"/>
<rect width="19" height="400" rx="9.5" transform="matrix(-0.819152 0.573576 0.573577 0.819152 876.564 -0.000183105)" fill="#BAD6FA"/>
<rect opacity="0.312783" width="4.84701" height="241" rx="2.42351" transform="matrix(-0.809017 0.587785 0.587785 0.809017 679.921 720.279)" fill="url(#paint0_linear_731_27580)"/>
<rect width="4.84701" height="100" rx="2.42351" transform="matrix(-0.809017 0.587785 0.587785 0.809017 626.921 690.279)" fill="#BFECDB"/>
<rect opacity="0.169044" width="6.85" height="75" rx="3.425" transform="matrix(-0.809017 0.587786 0.587785 0.809017 139.542 319.993)" fill="#4791EC"/>
<rect opacity="0.312783" width="8" height="241" rx="4" transform="matrix(-0.809017 0.587785 0.587785 0.809017 793.472 748.001)" fill="#BFECDB"/>
<rect width="4.84701" height="241" rx="2.42351" transform="matrix(-0.809017 0.587785 0.587785 0.809017 41.9214 514.279)" fill="url(#paint1_linear_731_27580)"/>
<rect opacity="0.143965" width="12" height="241" rx="6" transform="matrix(-0.809017 0.587785 0.587785 0.809017 9.70801 514.279)" fill="url(#paint2_linear_731_27580)"/>
</g>
<defs>
<linearGradient id="paint0_linear_731_27580" x1="2.42351" y1="0" x2="2.42351" y2="241" gradientUnits="userSpaceOnUse">
<stop stop-color="#169A67"/>
<stop offset="1" stop-color="#56BE96"/>
</linearGradient>
<linearGradient id="paint1_linear_731_27580" x1="2.42351" y1="0" x2="2.42351" y2="241" gradientUnits="userSpaceOnUse">
<stop stop-color="#169A67"/>
<stop offset="1" stop-color="#56BE96"/>
</linearGradient>
<linearGradient id="paint2_linear_731_27580" x1="6" y1="0" x2="6" y2="241" gradientUnits="userSpaceOnUse">
<stop stop-color="#0B6CE3"/>
<stop offset="1" stop-color="#4791EC"/>
</linearGradient>
</defs>
</svg>
