<svg width="48" height="48" viewBox="0 0 48 48" fill="none" xmlns="http://www.w3.org/2000/svg">
<g filter="url(#filter0_d_1351_11535)">
<path d="M4 20.0003C4 8.95461 12.9543 0.000305176 24 0.000305176V0.000305176C35.0457 0.000305176 44 8.95461 44 20.0003V20.0003C44 31.046 35.0457 40.0003 24 40.0003V40.0003C12.9543 40.0003 4 31.046 4 20.0003V20.0003Z" fill="#313244"/>
<path d="M24 16.3639C21.9927 16.3639 20.3636 17.993 20.3636 20.0003C20.3636 22.0076 21.9927 23.6367 24 23.6367C26.0073 23.6367 27.6364 22.0076 27.6364 20.0003C27.6364 17.993 26.0073 16.3639 24 16.3639ZM16.7273 20.7276H18.1818C18.5818 20.7276 18.9091 20.4003 18.9091 20.0003C18.9091 19.6003 18.5818 19.273 18.1818 19.273H16.7273C16.3273 19.273 16 19.6003 16 20.0003C16 20.4003 16.3273 20.7276 16.7273 20.7276ZM29.8182 20.7276H31.2727C31.6727 20.7276 32 20.4003 32 20.0003C32 19.6003 31.6727 19.273 31.2727 19.273H29.8182C29.4182 19.273 29.0909 19.6003 29.0909 20.0003C29.0909 20.4003 29.4182 20.7276 29.8182 20.7276ZM23.2727 12.7276V14.1821C23.2727 14.5821 23.6 14.9094 24 14.9094C24.4 14.9094 24.7273 14.5821 24.7273 14.1821V12.7276C24.7273 12.3276 24.4 12.0003 24 12.0003C23.6 12.0003 23.2727 12.3276 23.2727 12.7276ZM23.2727 25.8185V27.273C23.2727 27.673 23.6 28.0003 24 28.0003C24.4 28.0003 24.7273 27.673 24.7273 27.273V25.8185C24.7273 25.4185 24.4 25.0912 24 25.0912C23.6 25.0912 23.2727 25.4185 23.2727 25.8185ZM19.6291 14.6039C19.3455 14.3203 18.88 14.3203 18.6036 14.6039C18.32 14.8876 18.32 15.353 18.6036 15.6294L19.3745 16.4003C19.6582 16.6839 20.1236 16.6839 20.4 16.4003C20.6764 16.1167 20.6836 15.6512 20.4 15.3749L19.6291 14.6039ZM28.6255 23.6003C28.3418 23.3167 27.8764 23.3167 27.6 23.6003C27.3164 23.8839 27.3164 24.3494 27.6 24.6258L28.3709 25.3967C28.6545 25.6803 29.12 25.6803 29.3964 25.3967C29.68 25.113 29.68 24.6476 29.3964 24.3712L28.6255 23.6003ZM29.3964 15.6294C29.68 15.3458 29.68 14.8803 29.3964 14.6039C29.1127 14.3203 28.6473 14.3203 28.3709 14.6039L27.6 15.3749C27.3164 15.6585 27.3164 16.1239 27.6 16.4003C27.8836 16.6767 28.3491 16.6839 28.6255 16.4003L29.3964 15.6294ZM20.4 24.6258C20.6836 24.3421 20.6836 23.8767 20.4 23.6003C20.1164 23.3167 19.6509 23.3167 19.3745 23.6003L18.6036 24.3712C18.32 24.6549 18.32 25.1203 18.6036 25.3967C18.8873 25.673 19.3527 25.6803 19.6291 25.3967L20.4 24.6258Z" fill="#D7DAE3"/>
</g>
<defs>
<filter id="filter0_d_1351_11535" x="0" y="0.000305176" width="48" height="48" filterUnits="userSpaceOnUse" color-interpolation-filters="sRGB">
<feFlood flood-opacity="0" result="BackgroundImageFix"/>
<feColorMatrix in="SourceAlpha" type="matrix" values="0 0 0 0 0 0 0 0 0 0 0 0 0 0 0 0 0 0 127 0" result="hardAlpha"/>
<feOffset dy="4"/>
<feGaussianBlur stdDeviation="2"/>
<feComposite in2="hardAlpha" operator="out"/>
<feColorMatrix type="matrix" values="0 0 0 0 0 0 0 0 0 0 0 0 0 0 0 0 0 0 0.25 0"/>
<feBlend mode="normal" in2="BackgroundImageFix" result="effect1_dropShadow_1351_11535"/>
<feBlend mode="normal" in="SourceGraphic" in2="effect1_dropShadow_1351_11535" result="shape"/>
</filter>
</defs>
</svg>
