<svg width="40" height="40" viewBox="0 0 40 40" fill="none" xmlns="http://www.w3.org/2000/svg">
<path d="M0 20.0001C0 8.95443 8.95431 0.00012207 20 0.00012207C31.0457 0.00012207 40 8.95443 40 20.0001C40 31.0458 31.0457 40.0001 20 40.0001C8.95431 40.0001 0 31.0458 0 20.0001Z" fill="#7A7A8A" fill-opacity="0.2"/>
<path d="M20 16.3638C17.9927 16.3638 16.3636 17.9928 16.3636 20.0001C16.3636 22.0074 17.9927 23.6365 20 23.6365C22.0073 23.6365 23.6364 22.0074 23.6364 20.0001C23.6364 17.9928 22.0073 16.3638 20 16.3638ZM12.7273 20.7274H14.1818C14.5818 20.7274 14.9091 20.4001 14.9091 20.0001C14.9091 19.6001 14.5818 19.2728 14.1818 19.2728H12.7273C12.3273 19.2728 12 19.6001 12 20.0001C12 20.4001 12.3273 20.7274 12.7273 20.7274ZM25.8182 20.7274H27.2727C27.6727 20.7274 28 20.4001 28 20.0001C28 19.6001 27.6727 19.2728 27.2727 19.2728H25.8182C25.4182 19.2728 25.0909 19.6001 25.0909 20.0001C25.0909 20.4001 25.4182 20.7274 25.8182 20.7274ZM19.2727 12.7274V14.1819C19.2727 14.5819 19.6 14.9092 20 14.9092C20.4 14.9092 20.7273 14.5819 20.7273 14.1819V12.7274C20.7273 12.3274 20.4 12.0001 20 12.0001C19.6 12.0001 19.2727 12.3274 19.2727 12.7274ZM19.2727 25.8183V27.2729C19.2727 27.6728 19.6 28.0001 20 28.0001C20.4 28.0001 20.7273 27.6728 20.7273 27.2729V25.8183C20.7273 25.4183 20.4 25.091 20 25.091C19.6 25.091 19.2727 25.4183 19.2727 25.8183ZM15.6291 14.6038C15.3455 14.3201 14.88 14.3201 14.6036 14.6038C14.32 14.8874 14.32 15.3528 14.6036 15.6292L15.3745 16.4001C15.6582 16.6838 16.1236 16.6838 16.4 16.4001C16.6764 16.1165 16.6836 15.651 16.4 15.3747L15.6291 14.6038ZM24.6255 23.6001C24.3418 23.3165 23.8764 23.3165 23.6 23.6001C23.3164 23.8838 23.3164 24.3492 23.6 24.6256L24.3709 25.3965C24.6545 25.6801 25.12 25.6801 25.3964 25.3965C25.68 25.1129 25.68 24.6474 25.3964 24.371L24.6255 23.6001ZM25.3964 15.6292C25.68 15.3456 25.68 14.8801 25.3964 14.6038C25.1127 14.3201 24.6473 14.3201 24.3709 14.6038L23.6 15.3747C23.3164 15.6583 23.3164 16.1238 23.6 16.4001C23.8836 16.6765 24.3491 16.6838 24.6255 16.4001L25.3964 15.6292ZM16.4 24.6256C16.6836 24.3419 16.6836 23.8765 16.4 23.6001C16.1164 23.3165 15.6509 23.3165 15.3745 23.6001L14.6036 24.371C14.32 24.6547 14.32 25.1201 14.6036 25.3965C14.8873 25.6728 15.3527 25.6801 15.6291 25.3965L16.4 24.6256Z" fill="#D7DAE3"/>
</svg>
