<svg width="18" height="17" viewBox="0 0 18 17" fill="none" xmlns="http://www.w3.org/2000/svg">
<g clip-path="url(#clip0_1506_12957)">
<path d="M9.00019 1.41667C7.63428 1.41667 6.35708 1.67307 5.1686 2.18587C3.98012 2.69868 3.03603 3.39041 2.33633 4.26107C1.63664 5.13173 1.28679 6.07248 1.28679 7.08333C1.28679 7.90972 1.52616 8.69737 2.0049 9.44629C2.48364 10.1952 3.15823 10.8427 4.02866 11.3887L4.90245 11.9421L4.63127 13.0046C4.47058 13.676 4.23623 14.3105 3.92823 14.9082C4.94597 14.4434 5.86662 13.8125 6.69019 13.0156L7.12206 12.5951L7.69454 12.6615C8.15654 12.7205 8.59176 12.75 9.00019 12.75C10.3661 12.75 11.6433 12.4936 12.8318 11.9808C14.0203 11.468 14.9644 10.7763 15.664 9.9056C16.3637 9.03494 16.7136 8.09418 16.7136 7.08333C16.7136 6.07248 16.3637 5.13173 15.664 4.26107C14.9644 3.39041 14.0203 2.69868 12.8318 2.18587C11.6433 1.67307 10.3661 1.41667 9.00019 1.41667ZM17.9992 7.08333C17.9992 8.36719 17.5974 9.55328 16.7939 10.6416C15.9905 11.7299 14.8991 12.5895 13.5198 13.2204C12.1405 13.8512 10.6339 14.1667 9.00019 14.1667C8.5315 14.1667 8.04606 14.1372 7.54389 14.0781C6.21814 15.3694 4.67814 16.2622 2.92388 16.7565C2.59579 16.8598 2.21414 16.941 1.77892 17H1.7287C1.62827 17 1.53788 16.9613 1.45753 16.8838C1.37718 16.8063 1.32361 16.7049 1.29683 16.5794V16.5684C1.27674 16.5388 1.27507 16.4946 1.29181 16.4355C1.30855 16.3765 1.31524 16.3396 1.3119 16.3249C1.30855 16.3101 1.32361 16.2751 1.35709 16.2197L1.41735 16.1201L1.48766 16.026L1.56801 15.9264C1.61488 15.8674 1.71866 15.7401 1.87935 15.5446C2.04005 15.3491 2.15555 15.2089 2.22585 15.124C2.29616 15.0392 2.39994 14.8934 2.5372 14.6868C2.67446 14.4803 2.78327 14.2921 2.86362 14.1224C2.94396 13.9527 3.03436 13.735 3.13479 13.4694C3.23523 13.2038 3.32227 12.9234 3.39592 12.6283C2.3447 11.9716 1.51611 11.1599 0.910157 10.1934C0.304199 9.22678 0.0012207 8.1901 0.0012207 7.08333C0.0012207 5.79948 0.40296 4.61339 1.20644 3.52507C2.00992 2.43674 3.10131 1.57715 4.48062 0.946289C5.85993 0.31543 7.36645 0 9.00019 0C10.6339 0 12.1405 0.31543 13.5198 0.946289C14.8991 1.57715 15.9905 2.43674 16.7939 3.52507C17.5974 4.61339 17.9992 5.79948 17.9992 7.08333Z" fill="#7A7A8A"/>
</g>
<defs>
<clipPath id="clip0_1506_12957">
<rect width="18" height="17" fill="white"/>
</clipPath>
</defs>
</svg>
