<svg width="15" height="15" viewBox="0 0 15 15" fill="none" xmlns="http://www.w3.org/2000/svg">
<path opacity="0.4" d="M12.2771 5.93029C12.2771 5.97278 11.944 10.1858 11.7537 11.9588C11.6346 13.0469 10.9331 13.7069 9.88093 13.7256C9.0725 13.7438 8.28108 13.75 7.50243 13.75C6.67576 13.75 5.86733 13.7438 5.0826 13.7256C4.06568 13.7013 3.36362 13.0282 3.25056 11.9588C3.05483 10.1795 2.72781 5.97278 2.72173 5.93029C2.71565 5.80216 2.75699 5.68029 2.84087 5.58155C2.92354 5.4903 3.04267 5.4353 3.16789 5.4353H11.837C11.9616 5.4353 12.0746 5.4903 12.164 5.58155C12.2473 5.68029 12.2892 5.80216 12.2771 5.93029" fill="#CB3131"/>
<path d="M13.125 3.73554C13.125 3.47867 12.9226 3.27743 12.6794 3.27743H10.8571C10.4863 3.27743 10.1642 3.01369 10.0815 2.64183L9.9794 2.18622C9.83656 1.63561 9.34359 1.25 8.79046 1.25H6.21015C5.65093 1.25 5.16284 1.63561 5.01452 2.21622L4.91909 2.64245C4.83581 3.01369 4.51366 3.27743 4.14348 3.27743H2.32116C2.07741 3.27743 1.875 3.47867 1.875 3.73554V3.97303C1.875 4.22365 2.07741 4.43114 2.32116 4.43114H12.6794C12.9226 4.43114 13.125 4.22365 13.125 3.97303V3.73554Z" fill="#CB3131"/>
</svg>
