<svg width="21" height="18" viewBox="0 0 21 18" fill="none" xmlns="http://www.w3.org/2000/svg">
<path d="M17.6109 0.5H3.10781C2.28357 0.5 1.49309 0.827429 0.910257 1.41026C0.327429 1.99309 0 2.78357 0 3.60781V13.9672C0 14.7914 0.327429 15.5819 0.910257 16.1647C1.49309 16.7476 2.28357 17.075 3.10781 17.075H17.6109C18.4352 17.075 19.2257 16.7476 19.8085 16.1647C20.3913 15.5819 20.7188 14.7914 20.7188 13.9672V3.60781C20.7188 2.78357 20.3913 1.99309 19.8085 1.41026C19.2257 0.827429 18.4352 0.5 17.6109 0.5V0.5ZM17.6109 2.57188L10.8773 7.20252C10.7199 7.29344 10.5412 7.3413 10.3594 7.3413C10.1775 7.3413 9.99889 7.29344 9.84141 7.20252L3.10781 2.57188H17.6109Z" fill="#222222"/>
</svg>
