<svg width="17" height="17" viewBox="0 0 17 17" fill="none" xmlns="http://www.w3.org/2000/svg">
<path d="M1 4C1 3.20435 1.31607 2.44129 1.87868 1.87868C2.44129 1.31607 3.20435 1 4 1H13C13.7956 1 14.5587 1.31607 15.1213 1.87868C15.6839 2.44129 16 3.20435 16 4V13C16 13.7956 15.6839 14.5587 15.1213 15.1213C14.5587 15.6839 13.7956 16 13 16H4C3.20435 16 2.44129 15.6839 1.87868 15.1213C1.31607 14.5587 1 13.7956 1 13V4Z" stroke="#2084FF" stroke-width="1.105" stroke-linecap="round" stroke-linejoin="round"/>
<path d="M5.875 7.75C6.91053 7.75 7.75 6.91053 7.75 5.875C7.75 4.83947 6.91053 4 5.875 4C4.83947 4 4 4.83947 4 5.875C4 6.91053 4.83947 7.75 5.875 7.75Z" stroke="#2084FF" stroke-width="1.105" stroke-linecap="round" stroke-linejoin="round"/>
<path d="M10.3945 8.96573L4 16H13.0997C13.8689 16 14.6066 15.6944 15.1505 15.1505C15.6944 14.6066 16 13.8689 16 13.0997V13C16 12.6505 15.8688 12.5162 15.6325 12.2575L12.61 8.96123C12.4691 8.80756 12.2978 8.68495 12.1069 8.60121C11.916 8.51747 11.7097 8.47443 11.5013 8.47486C11.2928 8.47528 11.0867 8.51915 10.8962 8.60367C10.7056 8.68818 10.5347 8.81149 10.3945 8.96573V8.96573Z" stroke="#2084FF" stroke-width="1.105" stroke-linecap="round" stroke-linejoin="round"/>
</svg>
