<svg width="25" height="25" viewBox="0 0 25 25" fill="none" xmlns="http://www.w3.org/2000/svg">
<path d="M4.16667 13.5416C4.74196 13.5416 5.20833 13.0753 5.20833 12.5C5.20833 11.9247 4.74196 11.4583 4.16667 11.4583C3.59137 11.4583 3.125 11.9247 3.125 12.5C3.125 13.0753 3.59137 13.5416 4.16667 13.5416Z" stroke="#7A7A8A" stroke-width="2.08333"/>
<path d="M12.4999 13.5416C13.0752 13.5416 13.5416 13.0753 13.5416 12.5C13.5416 11.9247 13.0752 11.4583 12.4999 11.4583C11.9246 11.4583 11.4583 11.9247 11.4583 12.5C11.4583 13.0753 11.9246 13.5416 12.4999 13.5416Z" stroke="#7A7A8A" stroke-width="2.08333"/>
<path d="M20.8334 13.5416C21.4087 13.5416 21.8751 13.0753 21.8751 12.5C21.8751 11.9247 21.4087 11.4583 20.8334 11.4583C20.2581 11.4583 19.7917 11.9247 19.7917 12.5C19.7917 13.0753 20.2581 13.5416 20.8334 13.5416Z" stroke="#7A7A8A" stroke-width="2.08333"/>
</svg>
