<svg width="60" height="60" viewBox="0 0 60 60" fill="none" xmlns="http://www.w3.org/2000/svg">
<path d="M0 30C0 13.4315 13.4315 0 30 0C46.5685 0 60 13.4315 60 30C60 46.5685 46.5685 60 30 60C13.4315 60 0 46.5685 0 30Z" fill="#D7DAE3"/>
<path opacity="0.4" d="M30.8791 18.9479V30.2519C30.8791 30.7748 30.4547 31.1992 29.9317 31.1992C29.4088 31.1992 28.9844 30.7748 28.9844 30.2519V18.9479C28.9844 18.4249 29.4088 18.0005 29.9317 18.0005C30.4547 18.0005 30.8791 18.4249 30.8791 18.9479Z" fill="#545569"/>
<mask id="mask0_410_7081" style="mask-type:alpha" maskUnits="userSpaceOnUse" x="22" y="29" width="16" height="13">
<path fill-rule="evenodd" clip-rule="evenodd" d="M22.667 29.3047H37.1955V41.224H22.667V29.3047Z" fill="white"/>
</mask>
<g mask="url(#mask0_410_7081)">
<path d="M37.1959 30.2521C37.1959 30.429 37.1466 30.6033 37.0506 30.7574L30.7336 40.7818C30.5593 41.0572 30.2574 41.2252 29.9315 41.2252C29.6056 41.2252 29.3037 41.0572 29.1294 40.7818L22.8123 30.7574C22.6292 30.4656 22.6178 30.0967 22.7858 29.7948C22.9525 29.4917 23.2696 29.3047 23.6144 29.3047H36.2485C36.5934 29.3047 36.9104 29.4917 37.0772 29.7948C37.1567 29.9376 37.1959 30.0955 37.1959 30.2521Z" fill="#545569"/>
</g>
</svg>
