<svg width="21" height="18" viewBox="0 0 21 18" fill="none" xmlns="http://www.w3.org/2000/svg">
<path d="M19.3279 6.12383L18.1349 6.95889V4.25487C18.1349 3.32702 17.8035 2.5251 17.1408 1.84909C16.478 1.17309 15.6827 0.835083 14.7549 0.835083H6.24518C5.31733 0.835083 4.52203 1.17309 3.85928 1.84909C3.19653 2.5251 2.86515 3.32702 2.86515 4.25487C2.86515 4.49346 2.94468 4.69229 3.10374 4.85135C3.2628 5.01041 3.46163 5.08994 3.70022 5.08994C3.96532 5.08994 4.1774 5.01041 4.33646 4.85135C4.49552 4.69229 4.57505 4.49346 4.57505 4.25487C4.57505 3.77769 4.74073 3.37342 5.07211 3.04204C5.40348 2.71067 5.79451 2.54498 6.24518 2.54498H14.7549C15.2056 2.54498 15.5966 2.71067 15.928 3.04204C16.2593 3.37342 16.425 3.77769 16.425 4.25487V6.87936L15.2321 6.00453C14.7284 5.71292 14.344 5.80571 14.0789 6.28289C13.7608 6.78658 13.8403 7.18423 14.3175 7.47584L17.2999 9.3448L20.322 7.47584C20.7727 7.18423 20.8654 6.78658 20.6003 6.28289C20.2027 5.88524 19.7785 5.83222 19.3279 6.12383ZM17.2999 10.1799C17.0348 10.1799 16.8227 10.2594 16.6636 10.4185C16.5046 10.5775 16.425 10.7763 16.425 11.0149C16.425 11.4921 16.2593 11.8964 15.928 12.2278C15.5966 12.5591 15.2056 12.7248 14.7549 12.7248H6.24518C5.79451 12.7248 5.40348 12.5591 5.07211 12.2278C4.74073 11.8964 4.57505 11.4921 4.57505 11.0149V8.39044L5.768 9.26527C5.82102 9.26527 5.90055 9.27852 6.00659 9.30503C6.11263 9.33154 6.19216 9.3448 6.24518 9.3448C6.45726 9.3448 6.68259 9.2255 6.92118 8.98691C7.2393 8.48322 7.15977 8.08557 6.68259 7.79396L3.70022 5.925L0.678074 7.79396C0.227404 8.08557 0.134619 8.48322 0.399719 8.98691C0.691329 9.43758 1.08898 9.53037 1.59267 9.26527L2.78562 8.39044V11.0149C2.78562 11.9428 3.117 12.7447 3.77975 13.4207C4.4425 14.0967 5.2378 14.4347 6.16565 14.4347H14.6754C15.6032 14.4347 16.3985 14.0967 17.0613 13.4207C17.724 12.7447 18.0554 11.9428 18.0554 11.0149C18.0819 10.7763 18.0223 10.5775 17.8764 10.4185C17.7306 10.2594 17.5384 10.1799 17.2999 10.1799Z" fill="#7A7A8A"/>
</svg>
