<svg width="33" height="32" viewBox="0 0 33 32" fill="none" xmlns="http://www.w3.org/2000/svg">
<path opacity="0.4" d="M29.8332 16.0065C29.8332 23.3517 23.8486 29.3334 16.4998 29.3334C9.15106 29.3334 3.1665 23.3517 3.1665 16.0065C3.1665 8.64839 9.15106 2.66672 16.4998 2.66672C23.8486 2.66672 29.8332 8.64839 29.8332 16.0065" fill="#F2F3F6"/>
<path d="M21.8333 16.0065C21.8333 16.3435 21.7273 16.6818 21.5152 16.9527C21.4754 17.0058 21.2898 17.2248 21.1439 17.3674L21.0644 17.4452C19.9508 18.6259 17.1799 20.4015 15.7746 20.9705C15.7746 20.9834 14.9394 21.3217 14.5417 21.3334H14.4886C13.8788 21.3334 13.3087 20.9977 13.017 20.4534C12.858 20.154 12.7121 19.2856 12.6989 19.2739C12.5795 18.495 12.5 17.3026 12.5 15.9936C12.5 14.621 12.5795 13.3755 12.7254 12.6108C12.7254 12.5979 12.8712 11.898 12.964 11.6647C13.1098 11.329 13.375 11.0426 13.7064 10.8611C13.9716 10.7328 14.25 10.6667 14.5417 10.6667C14.8466 10.681 15.4167 10.8741 15.642 10.9648C17.1269 11.5351 19.964 13.4014 21.0511 14.542C21.2367 14.7234 21.4356 14.945 21.4886 14.9956C21.714 15.2807 21.8333 15.6307 21.8333 16.0065" fill="#F2F3F6"/>
</svg>
