<svg width="23" height="23" viewBox="0 0 23 23" fill="none" xmlns="http://www.w3.org/2000/svg">
<path d="M22.8672 10.8225V10.9327C22.8557 12.4442 22.5428 13.9382 21.9466 15.3273C21.3505 16.7163 20.4833 17.9724 19.3956 19.0221C17.3141 20.9686 14.5853 22.075 11.736 22.128C8.88665 22.1809 6.11869 21.1765 3.96631 19.3086C2.61773 18.1053 1.58147 16.5925 0.94657 14.9003C0.87059 14.7028 0.85305 14.4877 0.896044 14.2805C0.939038 14.0734 1.04075 13.883 1.18903 13.732C1.33156 13.5923 1.50937 13.4939 1.70347 13.4473C1.89758 13.4007 2.10069 13.4077 2.29113 13.4675C3.9453 14.0715 5.73743 14.1912 7.45722 13.8125C9.17701 13.4338 10.7531 12.5724 12.0006 11.3295C13.2397 10.0749 14.0982 8.49509 14.4766 6.77284C14.8549 5.05059 14.7378 3.25639 14.1386 1.59798C14.0692 1.40058 14.0573 1.18749 14.1045 0.983605C14.1517 0.779725 14.2559 0.593491 14.405 0.446678C14.5542 0.299865 14.742 0.198542 14.9466 0.15456C15.1512 0.110578 15.3641 0.125755 15.5604 0.198314C17.0633 0.761307 18.4277 1.64081 19.561 2.77722C20.6149 3.83431 21.4495 5.08925 22.0169 6.46993C22.5843 7.85061 22.8733 9.3298 22.8672 10.8225V10.8225Z" fill="#FFFFFF"/>
</svg>
